# AST/ASF file generated using VICON BodyLanguage
# -----------------------------------------------
:version 1.10
:name VICON
:units
  mass 1.0
  length 0.45
  angle deg
:documentation
   .ast/.asf automatically generated from VICON data using
   VICON BodyBuilder and BodyLanguage model FoxedUp or BRILLIANT.MOD
:root
   order TX TY TZ RX RY RZ
   axis XYZ
   position 0 0 0  
   orientation 0 0 0 
:bonedata
  begin
     id 1 
     name lhipjoint
     direction 0.602128 -0.715006 0.355257 
     length 2.21237 
     axis 0 0 0  XYZ
  end
  begin
     id 2 
     name lfemur
     direction 0.34202 -0.939693 0  
     length 6.71649  
     axis 0 0 20  XYZ
    dof rx ry rz
    limits (-160.0 20.0)
           (-70.0 70.0)
           (-60.0 70.0)
  end
  begin
     id 3 
     name ltibia
     direction 0.34202 -0.939693 0   
     length 6.97123   
     axis 0 0 20   XYZ
    dof rx
    limits (-10.0 170.0)
  end
  begin
     id 4 
     name lfoot
     direction 0.0655697 -0.180151 0.981451   
     length 1.80924   
     axis -90 7.62852e-016 20   XYZ
    dof rx rz
    limits (-45.0 90.0)
           (-70.0 20.0)
  end
  begin
     id 5 
     name ltoes
     direction 1.53545e-011 -4.21827e-011 1   
     length 0.916331   
     axis -90 7.62852e-016 20   XYZ
    dof rx
    limits (-90.0 20.0)
  end
  begin
     id 6 
     name rhipjoint
     direction -0.625414 -0.698792 0.347201   
     length 2.2637  
     axis 0 0 0  XYZ 
  end
  begin
     id 7 
     name rfemur
     direction -0.34202 -0.939693 0   
     length 7.07595   
     axis 0 0 -20   XYZ
    dof rx ry rz
    limits (-160.0 20.0)
           (-70.0 70.0)
           (-70.0 60.0)
  end
  begin
     id 8 
     name rtibia
     direction -0.34202 -0.939693 0   
     length 7.22924   
     axis 0 0 -20   XYZ
    dof rx
    limits (-10.0 170.0)
 end
 begin
     id 9 
     name rfoot
     direction -0.0766747 -0.210662 0.974547   
     length 1.98482  
     axis -90 -7.62852e-016 -20   XYZ
    dof rx rz
    limits (-45.0 90.0)
           (-20.0 70.0)
  end
  begin
     id 10 
     name rtoes
     direction -1.53532e-011 -4.21867e-011 1   
     length 0.999842   
     axis -90 -7.62852e-016 -20   XYZ
    dof rx
    limits (-90.0 20.0)
  end
  begin
     id 11 
     name lowerback
     direction -0.0224668 0.997354 -0.0691422   
     length 2.09945   
     axis 0 0 0   XYZ
    dof rx ry rz
    limits (-20.0 45.0)
           (-30.0 30.0)
           (-30.0 30.0)
  end
  begin
     id 12 
     name upperback
     direction 0.0134698 0.998451 -0.0539888   
     length 2.09758   
     axis 0 0 0   XYZ
    dof rx ry rz
    limits (-20.0 45.0)
           (-30.0 30.0)
           (-30.0 30.0)
  end
  begin
     id 13 
     name thorax
     direction 0.0241905 0.99948 -0.0213333   
     length 2.10428   
     axis 0 0 0   XYZ
    dof rx ry rz
    limits (-20.0 45.0)
           (-30.0 30.0)
           (-30.0 30.0)
  end
  begin
     id 14 
     name lowerneck
     direction -0.00866847 0.995978 0.0891737   
     length 1.3959   
     axis 0 0 0   XYZ
    dof rx ry rz
    limits (-20.0 45.0)
           (-30.0 30.0)
           (-30.0 30.0)
  end
  begin
     id 15 
     name upperneck
     direction 0.0680679 0.992203 0.104404   
     length 1.39452   
     axis 0 0 0   XYZ
    dof rx ry rz
    limits (-20.0 45.0)
           (-30.0 30.0)
           (-30.0 30.0)
  end
  begin
     id 16
     name head
     direction 0.0242216 0.999358 0.0264054  
     length 1.40433  
     axis 0 0 0   XYZ
    dof rx ry rz
    limits (-20.0 45.0)
           (-30.0 30.0)
           (-30.0 30.0)
  end
  begin
     id 17 
     name lclavicle
     direction 0.929368 0.362991 -0.0671771  
     length 3.04887  
     axis 0 0 0   XYZ
    dof ry rz
    limits (-20.0 10.0)
           (0.0 20.0)
  end
  begin
     id 18 
     name lhumerus
     direction 1 -4.48967e-011 -7.13741e-028   
     length 4.77195   
     axis -180 -30 -90   XYZ
    dof rx ry rz
    limits (-60.0 90.0)
           (-90.0 90.0)
           (-90.0 90.0)
  end
  begin
     id 19
     name lradius
     direction 1 -4.48977e-011 3.60404e-027   
     length 2.98444   
     axis -180 -30 -90   XYZ
    dof rx
    limits (-10.0 170.0)
  end
  begin
     id 20
     name lwrist
     direction 1 -4.48997e-011 7.54877e-027   
     length 1.49222   
     axis -7.18178e-015 90 90   XYZ
    dof ry
    limits (-180.0 0.0)
 end
  begin
     id 21 
     name lhand
     direction 1 -4.489e-011 1.51105e-026   
     length 0.992285   
     axis -9.63605e-015 90 90   XYZ
    dof rx rz
    limits (-90.0 90.0)
           (-45.0 45.0)
  end
  begin
     id 22 
     name lfingers
     direction 1 -4.48998e-011 3.01948e-026   
     length 0.800006   
     axis -1.92718e-014 90 90   XYZ
    dof rx
    limits (0.0 90.0)
  end
  begin
     id 23
     name lthumb
     direction 0.707107 -6.34881e-011 0.707107   
     length 1.14865   
     axis -90 45 -3.53137e-014   XYZ
    dof rx rz
    limits (-45.0 45.0)
           (-45.0 45.0)
  end
  begin
     id 24 
     name rclavicle
     direction -0.945672 0.324529 0.0196374   
     length 3.4236  
     axis 0 0 0   XYZ 
    dof ry rz
    limits (-10.0 20.0)
           (-20.0 0.0)
  end
  begin
     id 25 
     name rhumerus
     direction -1 -4.4896e-011 1.02757e-029  
     length 4.62052   
     axis -180 30 90   XYZ
    dof rx ry rz
    limits (-90.0 60.0)
           (-90.0 90.0)
           (-90.0 90.0)
  end
  begin
     id 26 
     name rradius
     direction -1 -4.48982e-011 3.85962e-027   
     length 2.95332   
     axis -180 30 90   XYZ
    dof rx
    limits (-10.0 170.0)
  end
  begin
     id 27 
     name rwrist
     direction -1 -4.48961e-011 7.55118e-027   
     length 1.47666   
     axis -7.18178e-015 -90 -90   XYZ
    dof ry
    limits (-180.0 0.0)
  end
  begin
     id 28
     name rhand
     direction -1 -4.48984e-011 1.50994e-026   
     length 0.990956   
     axis -9.63605e-015 -90 -90   XYZ
    dof rx rz
    limits (-90.0 90.0)
           (-45.0 45.0)
  end
  begin
     id 29
     name rfingers
     direction -1 -4.4892e-011 3.02158e-026   
     length 0.798934   
     axis -1.92718e-014 -90 -90   XYZ
    dof rx
    limits (0.0 90.0)
  end
  begin
     id 30
     name rthumb
     direction -0.707107 -6.34916e-011 0.707107   
     length 1.14711   
     axis -90 -45 3.53137e-014   XYZ
    dof rx rz
    limits (-45.0 45.0)
           (-45.0 45.0)
  end
:hierarchy
  begin
    root lhipjoint rhipjoint lowerback
    lhipjoint lfemur
    lfemur ltibia
    ltibia lfoot
    lfoot ltoes
    rhipjoint rfemur
    rfemur rtibia
    rtibia rfoot
    rfoot rtoes
    lowerback upperback
    upperback thorax
    thorax lowerneck lclavicle rclavicle
    lowerneck upperneck
    upperneck head
    lclavicle lhumerus
    lhumerus lradius
    lradius lwrist
    lwrist lhand lthumb
    lhand lfingers
    rclavicle rhumerus
    rhumerus rradius
    rradius rwrist
    rwrist rhand rthumb
    rhand rfingers
  end

#!OML:ASF H:\ManfredObstacles\Project 1\Capture day 1\Session 1\Male.ASF
:FULLY-SPECIFIED
:DEGREES
366
root -5.46389 16.7404 -12.1181 -165.691 -58.1643 -182.703
lowerback -12.2175 -3.28858 -2.13168
upperback 1.5415 -4.30489 2.51462
thorax 8.87953 -2.27065 3.03349
lowerneck -3.64006 -0.538076 -5.27019
upperneck -7.15393 -0.506461 7.03646
head -1.61913 -0.332845 3.21421
rclavicle 8.68689e-014 3.18055e-015
rhumerus -32.1529 -24.8401 -74.025
rradius 22.9617
rwrist 36.9236
rhand -1.30903 -5.40091
rfingers 7.12502
rthumb 24.336 -33.8759
lclavicle 8.68689e-014 3.18055e-015
lhumerus -26.2882 21.9793 83.6049
lradius 13.6242
lwrist -44.6886
lhand -8.50233 8.13716
lfingers 7.12502
lthumb 17.4254 37.3761
rfemur -27.2753 -9.5254 23.8642
rtibia 26.0003
rfoot -15.9712 10.7348
rtoes 25.629
lfemur 6.45787 -8.83352 -11.9179
ltibia 10.6268
lfoot 26.9485 -8.21777
ltoes 12.418
367
root -5.45627 16.7427 -12.1139 -165.611 -58.1857 -182.759
lowerback -12.3236 -3.27985 -2.24951
upperback 1.55875 -4.2778 2.54908
thorax 8.96963 -2.26543 3.13715
lowerneck -3.58362 -0.639648 -5.31759
upperneck -7.20064 -0.643815 6.96475
head -1.63487 -0.39961 3.19935
rclavicle -9.76033e-014 -4.77083e-015
rhumerus -32.1986 -24.9082 -73.8681
rradius 22.9063
rwrist 37.0725
rhand -1.20999 -5.29578
rfingers 7.12502
rthumb 24.4309 -33.758
lclavicle -9.76033e-014 -4.77083e-015
lhumerus -26.8033 23.466 82.5473
lradius 13.2818
lwrist -46.1421
lhand -8.51666 8.19785
lfingers 7.12502
lthumb 17.4117 37.438
rfemur -27.4311 -9.49926 23.8277
rtibia 26.2156
rfoot -16.2071 10.6535
rtoes 25.1287
lfemur 6.59404 -8.84288 -11.936
ltibia 10.1864
lfoot 27.0667 -8.18929
ltoes 12.1433
368
root -5.44733 16.744 -12.1089 -165.018 -58.071 -183.44
lowerback -12.3854 -3.28869 -2.71218
upperback 1.55608 -4.20934 2.48394
thorax 9.02756 -2.2531 3.3399
lowerneck -3.59314 -0.692981 -5.41338
upperneck -7.19373 -0.714039 6.9037
head -1.62619 -0.430123 3.19615
rclavicle -7.65321e-015 6.36111e-015
rhumerus -32.179 -24.811 -73.8063
rradius 22.796
rwrist 37.018
rhand -1.15789 -5.19726
rfingers 7.12502
rthumb 24.4809 -33.6527
lclavicle -7.65321e-015 6.36111e-015
lhumerus -27.3129 24.3842 81.7406
lradius 13.1113
lwrist -46.9702
lhand -8.59364 8.10092
lfingers 7.12502
lthumb 17.3376 37.3476
rfemur -27.6403 -9.38629 23.3976
rtibia 26.5112
rfoot -16.5603 10.539
rtoes 24.1638
lfemur 6.91099 -8.83515 -12.3588
ltibia 9.44627
lfoot 27.3272 -7.9797
ltoes 12.0807
369
root -5.4436 16.7455 -12.0865 -163.439 -57.6557 -185.131
lowerback -12.5446 -3.27154 -3.51626
upperback 1.48898 -4.02265 2.16085
thorax 9.06429 -2.18978 3.4805
lowerneck -3.53727 -0.764829 -5.40693
upperneck -7.11931 -0.81202 6.86324
head -1.60491 -0.476759 3.1801
rclavicle -5.56597e-014 1.51076e-014
rhumerus -32.1607 -24.6973 -73.8679
rradius 22.6148
rwrist 36.8195
rhand -1.25138 -5.1546
rfingers 7.12502
rthumb 24.3912 -33.6221
lclavicle -5.56597e-014 1.51076e-014
lhumerus -27.7213 24.7112 81.1141
lradius 12.9637
lwrist -47.1193
lhand -8.71926 8.00398
lfingers 7.12502
lthumb 17.2167 37.2613
rfemur -28.0535 -9.40614 22.3754
rtibia 26.7258
rfoot -16.6236 10.6672
rtoes 23.4639
lfemur 6.88222 -8.66431 -13.4758
ltibia 9.16897
lfoot 27.4646 -7.74074
ltoes 12.6281
370
root -5.43751 16.7449 -12.0736 -163.073 -57.6049 -185.527
lowerback -12.613 -3.31717 -3.7641
upperback 1.47068 -4.03523 2.08854
thorax 9.09804 -2.20565 3.5373
lowerneck -3.61358 -0.838099 -5.49702
upperneck -6.89894 -0.90239 6.97247
head -1.51334 -0.516244 3.23078
rclavicle -8.05078e-015 2.62396e-014
rhumerus -32.1833 -24.5998 -73.952
rradius 22.5528
rwrist 36.8579
rhand -1.36735 -5.06012
rfingers 7.12502
rthumb 24.2801 -33.5426
lclavicle -8.05078e-015 2.62396e-014
lhumerus -28.04 24.3237 80.84
lradius 13.014
lwrist -46.3675
lhand -8.78588 8.2098
lfingers 7.12502
lthumb 17.1525 37.4727
rfemur -28.2382 -9.53731 22.1542
rtibia 26.9101
rfoot -16.7831 10.6925
rtoes 22.6074
lfemur 6.95907 -8.68633 -13.743
ltibia 8.8874
lfoot 27.5351 -7.79972
ltoes 12.4307
371
root -5.42949 16.7421 -12.0654 -163.223 -57.7175 -185.411
lowerback -12.6227 -3.38064 -3.79886
upperback 1.51586 -4.12049 2.15261
thorax 9.16958 -2.25263 3.60612
lowerneck -3.88436 -0.900963 -5.72916
upperneck -6.63391 -0.969139 7.15424
head -1.37443 -0.539385 3.33161
rclavicle 3.57812e-014 -3.18055e-015
rhumerus -32.1614 -24.6191 -73.9756
rradius 22.624
rwrist 37.1191
rhand -1.3044 -4.9428
rfingers 7.12502
rthumb 24.3404 -33.4172
lclavicle 3.57812e-014 -3.18055e-015
lhumerus -28.3022 24.2893 80.565
lradius 13.0881
lwrist -46.0419
lhand -8.84451 8.15828
lfingers 7.12502
lthumb 17.0961 37.4261
rfemur -28.2671 -9.67986 22.2466
rtibia 27.0486
rfoot -16.9658 10.714
rtoes 21.9842
lfemur 7.06497 -8.80046 -13.6594
ltibia 8.7083
lfoot 27.6046 -8.01457
ltoes 11.8917
372
root -5.42152 16.7392 -12.0563 -163.34 -57.8064 -185.427
lowerback -12.5701 -3.34189 -3.78589
upperback 1.58582 -4.06936 2.12547
thorax 9.20757 -2.22798 3.58147
lowerneck -4.03639 -0.952197 -5.80442
upperneck -6.54353 -1.03051 7.20048
head -1.31372 -0.565783 3.3591
rclavicle -3.37934e-014 7.95139e-015
rhumerus -32.1692 -24.8724 -73.939
rradius 22.6292
rwrist 37.4148
rhand -1.22281 -4.84468
rfingers 7.12502
rthumb 24.4186 -33.3085
lclavicle -3.37934e-014 7.95139e-015
lhumerus -28.4754 24.7756 80.107
lradius 13.0097
lwrist -46.5898
lhand -8.78819 7.91043
lfingers 7.12502
lthumb 17.1503 37.1735
rfemur -28.1512 -9.72137 22.2128
rtibia 27.0583
rfoot -17.0898 10.7093
rtoes 21.9532
lfemur 7.09318 -8.92197 -13.655
ltibia 8.86886
lfoot 27.6074 -7.98827
ltoes 12.4259
373
root -5.41366 16.7375 -12.0494 -163.294 -57.7915 -185.659
lowerback -12.4929 -3.33559 -3.96943
upperback 1.63279 -4.0295 2.07843
thorax 9.22087 -2.21747 3.64549
lowerneck -4.05677 -0.95945 -5.69726
upperneck -6.44962 -1.04991 6.94364
head -1.27892 -0.571486 3.24776
rclavicle -7.12643e-014 -2.94201e-014
rhumerus -32.126 -24.9175 -73.9777
rradius 22.5707
rwrist 37.5386
rhand -1.14777 -4.79671
rfingers 7.12502
rthumb 24.4906 -33.2509
lclavicle -7.12643e-014 -2.94201e-014
lhumerus -28.7349 25.8047 79.4722
lradius 12.915
lwrist -47.5899
lhand -8.67162 7.87186
lfingers 7.12502
lthumb 17.2625 37.1252
rfemur -27.9945 -9.61958 22.0065
rtibia 27.0235
rfoot -17.2404 10.6024
rtoes 22.0779
lfemur 7.10971 -8.97594 -13.8248
ltibia 9.08
lfoot 27.4383 -7.96866
ltoes 12.6406
374
root -5.40668 16.7364 -12.0419 -163.104 -57.7231 -185.98
lowerback -12.4259 -3.34551 -4.24483
upperback 1.57465 -3.99907 2.04654
thorax 9.13392 -2.21347 3.77754
lowerneck -3.96424 -0.964783 -5.74531
upperneck -6.32721 -1.05832 6.88405
head -1.25492 -0.571233 3.23553
rclavicle 2.76311e-014 2.78299e-014
rhumerus -32.2364 -24.6982 -74.0172
rradius 22.5727
rwrist 37.3507
rhand -1.08666 -4.80317
rfingers 7.12502
rthumb 24.5491 -33.2494
lclavicle 2.76311e-014 2.78299e-014
lhumerus -29.0387 25.8077 79.3326
lradius 13.0137
lwrist -47.3966
lhand -8.61482 8.14399
lfingers 7.12502
lthumb 17.3172 37.3925
rfemur -27.9154 -9.52804 21.765
rtibia 26.978
rfoot -17.3371 10.4573
rtoes 21.9461
lfemur 7.08639 -8.98 -14.0903
ltibia 9.21196
lfoot 27.1781 -8.14709
ltoes 11.8881
375
root -5.40158 16.7388 -12.0312 -163.217 -57.7487 -185.888
lowerback -12.4403 -3.27418 -4.18297
upperback 1.5187 -3.91221 2.03494
thorax 9.06601 -2.16593 3.74928
lowerneck -3.62151 -1.03633 -5.95301
upperneck -6.48984 -1.14939 7.0643
head -1.36078 -0.619415 3.34294
rclavicle -4.52235e-014 1.19271e-014
rhumerus -32.3885 -24.574 -74.0487
rradius 22.5535
rwrist 37.1734
rhand -1.12796 -4.77838
rfingers 7.12502
rthumb 24.5096 -33.23
lclavicle -4.52235e-014 1.19271e-014
lhumerus -29.0982 24.6917 79.7388
lradius 13.1924
lwrist -46.1375
lhand -8.59753 8.49344
lfingers 7.12502
lthumb 17.3338 37.7405
rfemur -27.8318 -9.37597 21.753
rtibia 26.8471
rfoot -17.3597 10.2842
rtoes 21.955
lfemur 6.94655 -9.0088 -14.0774
ltibia 9.47608
lfoot 26.9179 -8.20129
ltoes 11.7512
